<svg width="172" height="24" viewBox="0 0 172 24" fill="none" xmlns="http://www.w3.org/2000/svg">
<path d="M7.63931 12.4293L7.68581 12.2435L7.7323 12.4062L9.6123 17.7849H5.78102L7.63776 12.4308L7.63931 12.4293ZM5.47724 8.12354L0 23.6287H3.76154L4.7488 20.812H10.6492L11.6364 23.6287H15.5142L10.037 8.12354H5.47724Z" fill="#312783"/>
<mask id="mask0_2226_3379" style="mask-type:luminance" maskUnits="userSpaceOnUse" x="0" y="0" width="172" height="24">
<path d="M172 0H0V24H172V0Z" fill="white"/>
</mask>
<g mask="url(#mask0_2226_3379)">
<path d="M15.8922 15.969C15.8922 10.9172 19.0183 7.75049 23.3672 7.75049C27.1055 7.75049 29.4783 9.44975 30.0425 13.1292L26.47 13.6879C26.0934 11.872 25.0364 11.1736 23.4137 11.1736C21.4159 11.1736 19.9342 12.7807 19.9342 15.8538C19.9342 18.927 21.3214 20.5571 23.3657 20.5571C25.0814 20.5571 26.1151 19.8817 26.5863 18.0428L30.1355 18.6015C29.5248 22.2334 26.9381 24.0033 23.1781 24.0033C18.8524 24.0033 15.8906 21.1389 15.8906 15.9705" fill="#312783"/>
<path d="M41.0671 20.8103H35.1668L34.1795 23.627H30.418L35.8952 8.12183H40.4549L45.9322 23.627H42.0544L41.0671 20.8103ZM40.0318 17.7848L38.1518 12.4076L38.1053 12.2449L38.0573 12.4306L36.2005 17.7848H40.0318Z" fill="#312783"/>
<path d="M61.824 15.8048C61.824 20.6708 58.6514 23.6272 53.5492 23.6272H47.5078V8.12354H53.6902C58.7444 8.12354 61.824 10.9403 61.824 15.8063M57.7819 15.9214C57.7819 12.942 56.2072 11.4284 53.34 11.4054H51.3422V20.2993L53.4113 20.3223C56.2088 20.3223 57.7835 18.8794 57.7835 15.9214" fill="#312783"/>
<path d="M75.3647 20.439V23.6272H64.2227V8.12354H75.1291V11.2887H68.0539V14.0825H74.6114V17.2492H68.0539V20.439H75.3647Z" fill="#312783"/>
<path d="M94.8307 23.6287H91.3512V15.3397L91.469 12.5459L88.0143 23.4185H84.6046L81.1499 12.6165L81.2677 15.3397V23.6287H77.8828V8.12354H83.1245L86.4148 18.6231L89.6587 8.12354H94.8307V23.6287Z" fill="#312783"/>
<path d="M116.384 20.439V23.6272H105.242V8.12354H116.15V11.2887H109.073V14.0825H115.633V17.2492H109.073V20.439H116.384Z" fill="#312783"/>
<path d="M135.826 11.6846H131.29V23.6286H127.505V11.6846H122.922V8.12183H135.826V11.6846Z" fill="#312783"/>
<path d="M155.994 20.439V23.6272H144.852V8.12354H155.758V11.2887H148.683V14.0825H155.24V17.2492H148.683V20.439H155.994Z" fill="#312783"/>
<path d="M171.999 8.12354V23.6287H168.216L162.08 14.0364L162.198 16.6199V23.6287H158.508V8.12354H162.457L168.404 17.3659L168.332 14.9682V8.12354H171.999Z" fill="#312783"/>
<path d="M101.952 8.12183H98.1211V23.627H101.952V8.12183Z" fill="#312783"/>
<path d="M100.077 4.84298C101.427 4.84298 102.521 3.75926 102.521 2.42226C102.521 1.08526 101.427 0 100.077 0C98.727 0 97.6328 1.08372 97.6328 2.42072C97.6328 3.75772 98.727 4.84144 100.077 4.84144" fill="#DA0067"/>
<path d="M141.566 8.12183H137.734V23.627H141.566V8.12183Z" fill="#312783"/>
<path d="M139.686 4.84298C141.036 4.84298 142.13 3.75926 142.13 2.42226C142.13 1.08526 141.036 0 139.686 0C138.336 0 137.242 1.08372 137.242 2.42072C137.242 3.75772 138.336 4.84144 139.686 4.84144" fill="#DA0067"/>
</g>
</svg>
